<svg width="17" height="16" viewBox="0 0 17 16" fill="none" xmlns="http://www.w3.org/2000/svg">
<path d="M0.000409515 7.80755C0.0450031 3.4454 3.69275 -0.034029 8.16995 0.000251136C12.6471 0.0345313 16.2771 3.58252 16.2414 7.86754C16.1968 12.2383 12.558 15.6406 7.97373 15.6063C3.55897 15.5634 -0.044184 12.0497 0.000409515 7.80755ZM14.9214 7.82469C14.9303 4.24242 11.8623 1.28576 8.13427 1.28576C4.3795 1.27719 1.30254 4.23385 1.30254 7.83326C1.30254 11.407 4.40625 14.3722 8.11643 14.3551C11.8534 14.3465 14.9214 11.407 14.9214 7.82469ZM9.04398 3.54824C7.33159 3.38541 5.78865 3.73679 4.62922 5.05657C3.79978 5.9907 3.61249 7.11338 3.69275 8.30461C3.79978 10.0015 4.60246 11.2527 6.26134 11.9297C7.37618 12.3839 8.53561 12.4097 9.71288 12.204C10.5066 12.0669 11.2558 11.8183 11.889 11.2527C11.5591 10.9528 11.238 10.6614 10.908 10.3614C10.3015 10.9099 9.58802 11.0899 8.83885 11.0984C7.75969 11.1156 6.72512 10.9613 5.97594 10.0957C5.35163 9.37587 5.17326 8.51886 5.23569 7.61044C5.35163 5.87072 6.43972 4.85089 8.25913 4.77376C9.22235 4.73091 10.0964 4.97944 10.908 5.51935C11.131 5.14227 11.3361 4.79947 11.5412 4.43953C10.7831 3.86534 9.92693 3.63395 9.04398 3.54824Z" fill="white"/>
</svg>
