<svg width="136" height="50" viewBox="0 0 136 50" fill="none" xmlns="http://www.w3.org/2000/svg">
<path d="M42.3232 11.4247L23.3376 0.383562C22.9024 0.109589 22.3856 0 21.8688 0C21.352 0 20.8624 0.136986 20.4 0.383562L1.4688 11.4247C0.544 11.9452 0 12.9315 0 13.9726V36.0274C0 37.0685 0.544 38.0548 1.4688 38.5753L20.4272 49.6164C20.8896 49.863 21.3792 50 21.896 50C22.4128 50 22.9024 49.863 23.3648 49.6164L42.3232 38.5753C43.2208 38.0548 43.792 37.0685 43.792 36.0274V13.9726C43.792 12.9315 43.2208 11.9452 42.3232 11.4247ZM22.712 48.4932C22.4672 48.6301 22.1952 48.7123 21.896 48.7123C21.5968 48.7123 21.3248 48.6301 21.08 48.4932L17.7888 46.5753C18.0064 45.9178 18.1968 45.2055 18.4688 44.5753C19.2576 42.7945 19.176 41.0411 18.5776 39.2055C17.5712 36.1096 16.728 32.9863 15.8576 29.863C15.7216 29.3973 15.7216 28.7945 15.8304 28.3288C16.9184 23.6986 17.9792 19.0685 19.176 14.4658C19.5024 13.2329 20.2096 12.1096 20.7536 10.9589C20.8896 10.9863 21.0256 10.9863 21.1616 11.0137C24.0448 17.8082 26.928 24.6301 29.8112 31.4521C30.2464 31.3151 30.5728 31.2055 31.0352 31.0685C31.3616 32.7671 31.7152 34.4658 32.0416 36.137C32.4224 38.2466 32.7488 40.3562 33.1568 42.4658L22.712 48.4932ZM42.4864 36.0274C42.4864 36.6027 42.16 37.1507 41.6704 37.4521L37.5904 39.8082C36.7472 39.1507 35.8496 38.0274 35.8768 37.4521C36.0944 33.589 36.312 29.6986 36.5568 25.8356C36.5568 25.7808 36.6384 25.726 36.8288 25.3973C37.5632 26.6301 38.2432 27.726 38.896 28.8767C40.12 31.0137 41.2896 33.1507 42.4864 35.2877V36.0274V36.0274ZM42.4864 31.726C41.7792 30.4932 41.0992 29.3425 40.4464 28.1644C39.4128 26.3288 38.352 24.4932 37.3728 22.6301C36.9104 21.7534 36.5296 21.7534 35.904 22.4658C34.3536 24.2466 32.7216 25.9726 31.144 27.726C30.9808 27.9178 30.7904 28.0548 30.4096 28.3836C27.3088 21.0685 24.2624 13.9178 21.08 6.41096C20.2912 7.91781 19.6656 9.06849 19.0672 10.274C17.272 13.9178 15.504 17.589 13.6816 21.2055C13.5184 21.5342 13.1376 21.8082 12.784 21.9452C10.8528 22.6849 8.8944 23.3425 6.9904 24.137C6.4464 24.3562 5.8752 24.9041 5.6032 25.4521C4.488 27.726 3.5088 30.0548 2.3936 32.3014C2.1216 32.8493 1.6864 33.3425 1.2784 33.8356V13.9726C1.2784 13.3973 1.6048 12.8493 2.0944 12.5479L21.08 1.50685C21.3248 1.36986 21.5968 1.28767 21.896 1.28767C22.168 1.28767 22.4672 1.36986 22.712 1.50685L41.6704 12.5479C42.1872 12.8493 42.4864 13.3699 42.4864 13.9726V31.726Z" fill="#FDB913"/>
<path d="M42.4872 35.3151V36.0549C42.4872 36.6302 42.1608 37.1782 41.6712 37.4795L37.5912 39.8357C36.748 39.1782 35.8504 38.0549 35.8776 37.4795C36.0952 33.6165 36.3128 29.7261 36.5576 25.8631C36.5576 25.8083 36.6392 25.7535 36.8296 25.4247C37.564 26.6576 38.244 27.7535 38.8968 28.9042C40.1208 31.0138 41.2904 33.1508 42.4872 35.3151Z" fill="black"/>
<path d="M33.1296 42.4384L22.712 48.4932C22.4672 48.6302 22.1952 48.7124 21.896 48.7124C21.5968 48.7124 21.3248 48.6302 21.08 48.4932L17.7888 46.5754C18.0064 45.9178 18.1968 45.2055 18.4688 44.5754C19.2576 42.7945 19.176 41.0411 18.5776 39.2055C17.5712 36.1096 16.728 32.9863 15.8576 29.863C15.7216 29.3973 15.7216 28.7945 15.8304 28.3288C16.9184 23.6987 17.9792 19.0685 19.176 14.4658C19.5024 13.2329 20.2096 12.1096 20.7536 10.9589C20.8896 10.9863 21.0256 10.9863 21.1616 11.0137C24.0448 17.8082 26.928 24.6302 29.8112 31.4521C30.2464 31.3151 30.5728 31.2055 31.0352 31.0685C31.3616 32.7671 31.7152 34.4658 32.0416 36.137C32.3952 38.1918 32.7216 40.3288 33.1296 42.4384Z" fill="black"/>
<path d="M42.4873 13.9725V31.7533C41.7801 30.5205 41.1001 29.3698 40.4473 28.1917C39.4137 26.3561 38.3529 24.5205 37.3737 22.6575C36.9113 21.7807 36.5305 21.7807 35.9049 22.4931C34.3545 24.2739 32.7225 25.9999 31.1449 27.7533C30.9817 27.9451 30.7913 28.0821 30.4105 28.4109C27.3097 21.0958 24.2633 13.9451 21.0809 6.43828C20.2921 7.94513 19.6665 9.09582 19.0681 10.3013C17.2729 13.9451 15.5049 17.6164 13.6825 21.2328C13.5193 21.5616 13.1385 21.8355 12.7849 21.9725C10.8537 22.7123 8.8953 23.3698 6.9913 24.1643C6.4473 24.3835 5.8761 24.9314 5.6041 25.4794C4.4889 27.7533 3.5097 30.0821 2.3945 32.3287C2.1225 32.8766 1.6873 33.3698 1.2793 33.8629V13.9725C1.2793 13.3972 1.6057 12.8492 2.0953 12.5479L21.0809 1.50678C21.3257 1.36979 21.5977 1.2876 21.8969 1.2876C22.1689 1.2876 22.4681 1.36979 22.7129 1.50678L41.6713 12.5479C42.1881 12.8492 42.4873 13.3698 42.4873 13.9725Z" fill="black"/>
<path d="M48.416 20.8219V8.35614H51.2448V20.8219H48.416Z" fill="#FDB913"/>
<path d="M62.2877 8.35614H65.0349V20.8219H62.5053L57.0109 13.0959V20.8219H54.2637V8.35614H56.7933L62.2877 16.0822V8.35614Z" fill="#FDB913"/>
<path d="M72.0792 20.9589C70.556 20.9589 69.3864 20.6301 68.5432 19.9726C67.7 19.315 67.2376 18.3561 67.1016 17.0684L69.7672 16.6849C69.8488 17.2876 70.0664 17.7534 70.4744 18.0821C70.8824 18.4109 71.4536 18.5753 72.1607 18.5753C72.7863 18.5753 73.2488 18.4657 73.5752 18.2465C73.9015 18.0273 74.0647 17.726 74.0647 17.315C74.0647 16.9589 73.9015 16.6575 73.5479 16.4657C73.1943 16.2465 72.6232 16.0547 71.8344 15.863C70.964 15.6438 70.2568 15.3972 69.6584 15.0958C69.06 14.7945 68.6248 14.4109 68.3256 13.9178C68.0264 13.4246 67.8632 12.8219 67.8632 12.0821C67.8632 11.315 68.0536 10.6301 68.4616 10.0273C68.8696 9.4246 69.4136 8.95885 70.1208 8.63008C70.828 8.30132 71.644 8.13693 72.5687 8.13693C73.7655 8.13693 74.772 8.4383 75.5335 9.06844C76.2951 9.69858 76.7303 10.5479 76.8663 11.6164L74.3639 12.0273C74.2823 11.5342 74.0647 11.178 73.7111 10.9041C73.3848 10.6301 72.9495 10.5205 72.4327 10.5205C71.916 10.5205 71.508 10.6301 71.2088 10.8767C70.8824 11.1232 70.7464 11.452 70.7464 11.863C70.7464 12.2465 70.9096 12.5479 71.2088 12.7671C71.508 12.9862 72.052 13.2054 72.8679 13.3972C73.7111 13.6164 74.4455 13.8356 75.0711 14.1095C75.6967 14.3835 76.1591 14.7397 76.4855 15.178C76.8119 15.6438 76.9751 16.2465 76.9751 17.041C76.9751 17.8082 76.7847 18.4657 76.3767 19.0684C75.9687 19.6438 75.3975 20.1095 74.6631 20.4383C73.9015 20.7945 73.0312 20.9589 72.0792 20.9589Z" fill="#FDB913"/>
<path d="M81.9541 20.8219H79.1797V8.35614H83.7221C85.4629 8.35614 86.7685 8.68491 87.6389 9.36984C88.5093 10.0548 88.9445 11.0411 88.9445 12.3287C88.9445 13.6164 88.4549 14.6301 87.4757 15.3698C86.4965 16.1096 85.1093 16.4657 83.3413 16.4657H81.9541V20.8219ZM83.7221 10.6849H81.9541V14.0822H83.4773C84.3749 14.0822 85.0277 13.9452 85.4629 13.6712C85.8981 13.3972 86.1157 12.9589 86.1157 12.3287C86.1157 11.6986 85.9253 11.2876 85.5445 11.0411C85.1637 10.8219 84.5381 10.6849 83.7221 10.6849Z" fill="#FDB913"/>
<path d="M91.0391 20.8219V8.35614H93.8679V20.8219H91.0391Z" fill="#FDB913"/>
<path d="M107.223 18.137L107.876 20.3561C107.631 20.5479 107.305 20.7123 106.897 20.8219C106.489 20.9315 106.081 20.9863 105.673 20.9863C104.911 20.9863 104.258 20.8219 103.687 20.5205C103.116 20.2192 102.653 19.7534 102.273 19.1507L100.804 16.7671C100.641 16.4931 100.45 16.3013 100.287 16.1918C100.124 16.0822 99.9334 16.0274 99.7158 16V20.8219H96.9414V8.35614H100.994C102.708 8.35614 103.986 8.7123 104.829 9.39724C105.673 10.0822 106.108 11.0411 106.108 12.2466C106.108 13.2055 105.809 14 105.237 14.6027C104.639 15.2055 103.905 15.6164 102.98 15.8082C103.361 16 103.687 16.3013 103.986 16.7397L104.585 17.6438C104.965 18.1918 105.455 18.4931 106.053 18.4931C106.271 18.4931 106.489 18.4657 106.679 18.4109C106.842 18.3561 107.033 18.2465 107.223 18.137ZM100.804 10.6849H99.6886V13.7808H100.777C101.647 13.7808 102.273 13.6438 102.653 13.3972C103.034 13.1507 103.225 12.7397 103.225 12.2192C103.225 11.6712 103.007 11.2876 102.572 11.0411C102.164 10.7945 101.565 10.6849 100.804 10.6849Z" fill="#FDB913"/>
<path d="M117.613 10.8219H111.929V13.2876H117.233V15.7534H111.929V18.3287H117.777L117.613 20.7945H109.154V8.35614H117.613V10.8219Z" fill="#FDB913"/>
<path d="M62.478 26.2464L61.798 30.3834H56.8476V43.1779H52.1148V30.4108H46.8652V26.2464H62.478Z" fill="#FDB913"/>
<path d="M78.9059 38.7944L79.9939 42.4656C79.6131 42.767 79.0963 43.0136 78.4707 43.2053C77.8451 43.3971 77.1923 43.4793 76.5395 43.4793C75.2883 43.4793 74.2547 43.2601 73.4387 42.7944C72.6227 42.3286 71.9427 41.6711 71.4531 40.8492L69.9027 38.1916C69.7123 37.8629 69.5219 37.6437 69.3587 37.4793C69.1955 37.3149 68.9779 37.2053 68.7059 37.1779V43.2053H64.0547V26.2464H69.7395C72.3235 26.2464 74.2547 26.7396 75.4787 27.7259C76.7299 28.7122 77.3283 30.082 77.3283 31.8355C77.3283 33.0683 76.9747 34.1094 76.2675 34.9314C75.5603 35.7533 74.6083 36.3286 73.4387 36.6574C74.0371 36.8492 74.4995 37.2053 74.8531 37.7259L75.2883 38.3834C75.6963 39.0136 76.2947 39.3149 77.1107 39.3149C77.4099 39.3149 77.7091 39.2875 78.0083 39.2053C78.3347 39.1231 78.6339 38.9862 78.9059 38.7944ZM69.7123 30.082H68.7059V33.4519H69.9027C70.9363 33.4519 71.6435 33.3149 72.0515 33.041C72.4595 32.767 72.6499 32.3286 72.6499 31.7533C72.6499 31.1231 72.3779 30.6848 71.8339 30.4656C71.3171 30.1916 70.6099 30.082 69.7123 30.082Z" fill="#FDB913"/>
<path d="M80.8926 43.1779L88.3182 26.2464H92.2622L99.4158 43.1779H94.6286L93.4318 40.1369H86.931L85.707 43.1779H80.8926ZM88.5086 36.219H91.8542L90.2222 32.082L88.5086 36.219Z" fill="#FDB913"/>
<path d="M100.939 43.1779V26.2464H105.672V43.1779H100.939Z" fill="#FDB913"/>
<path d="M109.453 43.1779V26.2464H114.186V39.041H121.204L120.932 43.1779H109.453Z" fill="#FDB913"/>
<path d="M128.901 43.4246C126.779 43.4246 125.147 42.9588 123.95 42.0547C122.754 41.1506 122.101 39.8355 121.938 38.0821L126.317 37.4246C126.344 38.0273 126.616 38.5205 127.105 38.904C127.595 39.2876 128.248 39.452 129.037 39.452C130.478 39.452 131.213 39.0684 131.213 38.3013C131.213 37.9451 131.022 37.6712 130.614 37.452C130.206 37.2328 129.553 37.0136 128.629 36.7944C126.67 36.3287 125.229 35.6712 124.331 34.8766C123.406 34.0821 122.971 32.9588 122.971 31.5068C122.998 30.4109 123.27 29.452 123.841 28.6027C124.413 27.7807 125.201 27.1232 126.208 26.6575C127.214 26.1917 128.411 25.9451 129.798 25.9451C131.485 25.9451 132.872 26.3835 133.987 27.2328C135.075 28.0821 135.701 29.2602 135.864 30.7397L131.729 31.452C131.648 30.9862 131.403 30.6027 130.995 30.3287C130.587 30.0273 130.097 29.8903 129.526 29.8903C128.982 29.8903 128.547 29.9999 128.248 30.2191C127.921 30.4383 127.758 30.7123 127.758 31.0958C127.758 31.4246 127.921 31.726 128.248 31.9725C128.574 32.2191 129.173 32.4657 130.07 32.6849C131.376 33.0136 132.437 33.3698 133.334 33.7807C134.205 34.1917 134.885 34.7123 135.32 35.3424C135.782 35.9725 136 36.8218 136 37.8355C136 38.9314 135.701 39.8903 135.102 40.7397C134.504 41.5616 133.688 42.2191 132.627 42.6849C131.566 43.178 130.315 43.4246 128.901 43.4246Z" fill="#FDB913"/>
</svg>
