<svg width="34" height="33" viewBox="0 0 34 33" fill="none" xmlns="http://www.w3.org/2000/svg">
<path d="M33.1889 0.342844L33.1656 0.330383C32.8682 0.105613 32.4987 -0.0104594 32.1218 0.00250326C22.0435 0.00146484 11.9646 0.000945634 1.88518 0.000945634C1.50827 -0.0117957 1.13876 0.104556 0.841424 0.329604L0.817338 0.342065C0.240866 0.708886 0 1.24705 0 1.89424C0 4.64293 0 7.39084 0 10.138C0 17.1115 0 24.0849 0 31.0584C0 31.7227 0.226414 32.2734 0.81814 32.6488L0.841424 32.662C1.17141 32.9159 1.55519 32.9914 1.96546 32.9914C7.21901 32.9914 12.4726 32.9943 17.7261 33C18.0802 33 18.1685 32.9159 18.1669 32.574C18.1516 29.8248 18.1581 27.0756 18.1581 24.3271C18.1581 23.0686 18.1581 21.8105 18.1581 20.553C18.1581 20.3583 18.1677 20.2142 17.8762 20.2181C16.5667 20.2384 15.2572 20.2353 13.9477 20.2399C13.702 20.2633 13.7149 20.1029 13.7149 19.9409C13.7149 18.479 13.7213 17.0164 13.7101 15.5546C13.7101 15.2999 13.7839 15.2244 14.0473 15.2275C15.2741 15.2392 16.5017 15.2337 17.7285 15.2275C17.8554 15.2275 17.9951 15.2781 18.1099 15.1784C18.1902 13.902 18.1436 12.6247 18.1324 11.3475C18.1324 11.2883 18.1324 11.2291 18.1364 11.1707C18.1797 11.0796 18.1902 10.977 18.1661 10.8794C18.2062 10.5842 18.2408 10.2891 18.2865 9.99544C18.688 7.42536 20.5474 5.56712 23.1841 5.1193C24.9561 4.81868 26.7257 5.04142 28.496 5.14266C28.7289 5.1559 28.7216 5.30544 28.7208 5.46977C28.716 6.85605 28.716 8.24234 28.7136 9.62862C27.7108 9.6333 26.7064 9.6185 25.7052 9.64576C24.2102 9.68781 23.5518 10.2929 23.4828 11.7369C23.4322 12.7851 23.4756 13.8397 23.4515 14.8879C23.4443 15.1995 23.5623 15.2462 23.8457 15.2439C25.2764 15.2306 26.708 15.2439 28.1387 15.2322C28.4599 15.2322 28.5362 15.3101 28.4896 15.6216C28.2865 17.0071 28.093 18.3949 27.9404 19.7867C27.8987 20.1683 27.7606 20.236 27.4025 20.2298C26.1982 20.208 24.9938 20.2298 23.7895 20.2158C23.5262 20.2158 23.4515 20.2859 23.4523 20.5406C23.4598 24.5748 23.4598 28.6093 23.4523 32.6441C23.4523 32.9128 23.5253 32.9945 23.8096 32.9938C26.5779 32.9836 29.3495 32.9891 32.1146 32.9868C32.4915 32.9995 32.861 32.8832 33.1584 32.6581L33.1825 32.6464C33.7573 32.2788 33.999 31.7453 33.9998 31.0942C33.9998 28.8388 33.9998 26.5836 33.9998 24.3287C33.9998 16.862 33.9998 9.39576 33.9998 1.93006C34.0078 1.26807 33.7782 0.719789 33.1889 0.342844Z" fill="white"/>
</svg>
