<svg width="80" height="80" viewBox="0 0 80 80" fill="none" xmlns="http://www.w3.org/2000/svg">
<path d="M25.9961 37.0467C25.9961 37.0467 14.3226 23.7499 29.1805 9.56237C29.1805 9.56237 46.2648 -0.761071 57.2117 17.6577C57.2117 17.6577 61.4086 29.478 53.7648 37.0467C53.7648 37.0467 52.4351 32.9999 44.6617 29.5264C44.6617 29.5264 53.632 18.3092 39.9992 14.9842C39.9992 14.9842 27.5726 16.8171 34.8773 29.5264C34.8773 29.5264 26.4211 34.3421 25.9961 37.0467Z" fill="#FDB913"/>
<path d="M52.1777 9.60938L52.3137 9.71562L52.1777 9.60938Z" fill="black"/>
<path d="M70.4519 73.8874C72.154 73.4392 73.7394 72.629 75.0998 71.5121C76.4603 70.3952 77.5636 68.9979 78.3347 67.4156C79.1659 65.7218 79.4566 64.6421 79.5847 62.789C79.9628 56.9437 76.0675 51.6531 70.3206 50.2077C69.1472 49.9062 68.0503 49.9077 39.9456 49.9234C12.1519 49.9234 10.7347 49.9359 9.63312 50.2093C3.90655 51.6812 0.0424921 56.9718 0.42218 62.789C0.544055 64.6421 0.834679 65.7218 1.67218 67.414C3.16593 70.5062 5.78937 72.7187 9.26124 73.8203L10.6128 74.2406L56.4159 74.3343L62.655 74.3046C63.1019 74.3046 63.6347 74.3046 64.3894 74.3046L65.1909 74.2952C68.6487 74.2187 69.3878 74.1656 70.4519 73.8874ZM60.4691 72.7515L56.4597 72.7203L33.6659 72.6734C11.6753 72.6406 10.7144 72.6046 9.82062 72.3281C5.33468 70.9827 2.26905 67.1718 2.00812 62.5999C1.91124 60.6953 2.23937 59.1218 3.10187 57.3374C4.03937 55.4499 6.00968 53.4593 7.78937 52.5999C7.94562 52.5265 8.07687 52.4562 8.20187 52.3921C9.92062 51.4968 9.92062 51.4968 34.1941 51.4999H45.7753C70.0612 51.4999 70.0597 51.4999 71.7691 52.3921C71.8925 52.4562 72.0253 52.5265 72.1784 52.6015C73.9878 53.4812 75.9597 55.4734 76.8659 57.3374C77.7347 59.1218 78.0628 60.6952 77.9597 62.5984C77.8688 64.4779 77.2786 66.2993 76.2498 67.8749C75.221 69.4505 73.7908 70.7233 72.1066 71.5624C70.1909 72.5359 69.4831 72.6031 64.8034 72.6812L60.4691 72.7515Z" fill="black"/>
<path d="M17.813 58.4863C17.602 58.6973 17.4286 59.0238 17.4286 59.2145C17.4286 59.4832 17.2958 59.5395 16.6833 59.4832C16.0708 59.427 15.8786 59.4832 15.6099 59.9035C15.2083 60.4973 15.3614 60.9973 16.127 61.6457L16.7208 62.1441L16.013 62.7691C15.2083 63.5363 15.1692 63.8223 15.7833 64.5504C16.2036 65.0488 16.2989 65.0676 16.8364 64.8629C17.3739 64.6582 17.4286 64.691 17.4286 64.9785C17.4664 65.2503 17.5741 65.5077 17.7411 65.7254C18.3145 66.5473 19.7317 66.0691 19.7317 65.0551C19.7317 64.691 19.7895 64.6723 20.3067 64.8629C20.8239 65.0535 20.9192 65.0191 21.3599 64.6144C22.0099 64.0019 21.9724 63.5426 21.1489 62.7754L20.4786 62.1254L21.052 61.6457C21.7989 60.9957 21.952 60.4973 21.5505 59.8848C21.263 59.4629 21.1302 59.4066 20.4786 59.502C19.827 59.5973 19.7317 59.5395 19.7317 59.2332C19.7317 58.7551 19.0614 58.1035 18.5833 58.1035C18.2911 58.142 18.0201 58.2767 17.813 58.4863Z" fill="#FDB913"/>
<path d="M28.5409 58.4862C28.3374 58.6808 28.2029 58.9364 28.1581 59.2144C28.1581 59.4831 28.0237 59.5394 27.4112 59.4831C26.7987 59.4269 26.6065 59.4831 26.3393 59.9034C25.9362 60.4972 26.0893 60.9972 26.8565 61.6456L27.4487 62.144L26.7409 62.769C25.9362 63.5362 25.8987 63.8222 26.5112 64.5503C26.9331 65.0487 27.0284 65.0675 27.5643 64.8628C28.1002 64.6581 28.1581 64.6722 28.1581 65.0737C28.1581 66.0112 29.4987 66.5097 30.1299 65.8019C30.3193 65.5966 30.4339 65.3335 30.4549 65.055C30.4549 64.6722 30.5127 64.6722 31.0487 64.8628C31.5846 65.0534 31.6737 65.055 32.1018 64.5503C32.7143 63.8222 32.6768 63.5159 31.8721 62.769L31.2018 62.119L31.7768 61.6394C32.5237 60.9894 32.6768 60.4909 32.2752 59.8972C32.0065 59.4769 31.8346 59.419 31.2018 59.4769C30.569 59.5347 30.4549 59.4769 30.4549 59.2081C30.4549 58.7487 29.7846 58.0972 29.3065 58.0972C29.0153 58.1387 28.7461 58.2755 28.5409 58.4862Z" fill="#FDB913"/>
<path d="M39.2618 58.4862C39.0524 58.6972 38.879 59.0237 38.879 59.2144C38.879 59.4831 38.7446 59.5394 38.1321 59.4831C37.5196 59.4269 37.329 59.4831 37.0602 59.9034C36.6587 60.5159 36.8118 60.9972 37.5962 61.6659L38.1899 62.1628L37.5962 62.68C36.8493 63.3128 36.6962 63.7909 37.0602 64.3456C37.4243 64.9003 37.979 65.0737 38.4962 64.805C38.8212 64.6331 38.879 64.6487 38.879 65.055C38.879 66.0112 40.2196 66.5097 40.8509 65.8019C41.0407 65.5968 41.1558 65.3336 41.1774 65.055C41.1774 64.6722 41.2352 64.6722 41.7712 64.8628C42.3071 65.0534 42.3962 65.055 42.8243 64.5503C43.4368 63.8222 43.3977 63.5159 42.5946 62.769L41.9243 62.119L42.4977 61.6394C43.2446 60.9894 43.3977 60.4909 42.9962 59.8972C42.7274 59.4769 42.5555 59.419 41.9243 59.4769C41.293 59.5347 41.1774 59.4769 41.1774 59.2081C41.1774 58.7487 40.5071 58.0972 40.0274 58.0972C39.7363 58.1391 39.4672 58.2758 39.2618 58.4862Z" fill="#FDB913"/>
<path d="M49.9862 58.4863C49.7827 58.6809 49.6482 58.9365 49.6034 59.2145C49.6034 59.4832 49.469 59.5395 48.8565 59.4832C48.244 59.427 48.0518 59.4832 47.7831 59.9035C47.3815 60.4973 47.5346 60.9973 48.3002 61.6457L48.894 62.1441L48.1862 62.7691C47.3815 63.5363 47.344 63.8223 47.9565 64.5504C48.3768 65.0488 48.4737 65.0676 49.0096 64.8629C49.5456 64.6582 49.6034 64.6723 49.6034 65.0738C49.6034 66.0113 50.9424 66.5098 51.5752 65.802C51.7639 65.5963 51.8783 65.3333 51.9002 65.0551C51.9002 64.6723 51.9581 64.6723 52.494 64.8629C53.0299 65.0535 53.119 65.0551 53.5471 64.5504C54.1596 63.8223 54.1221 63.5363 53.3174 62.7691L52.6096 62.1441L53.2018 61.6457C53.969 60.9957 54.1221 60.4973 53.719 59.9035C53.4518 59.4832 53.2784 59.4254 52.6471 59.4832C52.0159 59.541 51.9002 59.4832 51.9002 59.2145C51.9002 58.7551 51.2299 58.1035 50.7518 58.1035C50.4614 58.1434 50.1923 58.2779 49.9862 58.4863Z" fill="#FDB913"/>
<path d="M60.707 58.4855C60.5025 58.6869 60.3683 58.9488 60.3242 59.2324C60.3242 59.5449 60.2289 59.5777 59.5773 59.5012C58.9258 59.4246 58.7961 59.4621 58.5054 59.884C58.1039 60.4965 58.257 60.9949 59.0226 61.6449L59.6164 62.1434L58.907 62.7684C58.1039 63.5355 58.0461 63.8793 58.6961 64.5121C59.2133 65.048 59.4054 65.0855 59.9601 64.798C60.2726 64.6262 60.3242 64.6652 60.3242 65.048C60.3242 66.0621 61.7601 66.5215 62.3148 65.7184C62.4818 65.5006 62.5895 65.2433 62.6273 64.9715C62.6273 64.684 62.7039 64.659 63.2195 64.8559C63.7351 65.0527 63.8523 65.048 64.2726 64.5434C64.8476 63.873 64.7523 63.3762 63.9101 62.6684L63.3304 62.1871L63.9554 61.6121C65.0492 60.6355 64.7023 59.3527 63.3429 59.4871C62.7492 59.5434 62.6164 59.4871 62.6164 59.2184C62.6164 58.759 61.9461 58.1074 61.4664 58.1074C61.1788 58.1473 60.9121 58.2801 60.707 58.4855Z" fill="#FDB913"/>
<path d="M58.3785 31.0391C58.8691 29.5383 59.1735 27.9829 59.2848 26.4078L59.2973 26.1985C59.3768 24.8507 59.3129 23.4983 59.1066 22.1641C58.3648 17.3807 55.8613 13.0475 52.0879 10.0156L51.9457 9.90313C48.5458 7.25351 44.3577 5.81642 40.0473 5.82032C36.1795 5.82217 32.3988 6.96877 29.1816 9.11563C28.1785 9.78282 25.8816 11.8453 25.1535 12.7313C22.95 15.4614 21.5018 18.7222 20.9535 22.1875C20.6898 23.8994 20.6577 25.639 20.8582 27.3594V27.3781C20.866 27.4922 20.8769 27.6203 20.8879 27.7688C21.0441 29.6969 21.7051 31.8141 22.8098 33.8922C23.2786 34.7737 23.8096 35.6206 24.3988 36.4266C25.5702 38.0462 26.9812 39.4781 28.5832 40.6735C28.8269 40.8531 29.0519 41.0063 29.2519 41.1422C32.5848 43.3391 36.0004 44.3625 39.9988 44.3625C45.4676 44.3625 50.1551 42.3563 53.9301 38.4C55.9647 36.3254 57.4879 33.8051 58.3785 31.0391ZM52.8129 37.3078L52.3598 37.7766C51.4223 38.7563 49.3098 40.2235 47.7363 40.9781C45.3001 42.1731 42.6248 42.8003 39.9113 42.8125C36.1379 42.8125 32.4113 41.5766 29.2113 39.15C28.683 38.7544 28.1824 38.3232 27.7129 37.8594L27.166 37.2953L25.6394 35.4688L25.3426 35.0781C25.3082 35.036 25.266 34.9781 25.2207 34.9219C24.9082 34.4466 24.6254 33.9524 24.3738 33.4422C24.1879 33.0875 24.0035 32.7031 23.8269 32.3031C21.8754 27.8469 21.8051 22.7719 23.6332 18.3969C24.789 15.5961 26.6428 13.138 29.0179 11.2567C31.393 9.37537 34.2103 8.13361 37.2013 7.6497C40.1923 7.16579 43.2574 7.45586 46.1045 8.49226C48.9517 9.52867 51.486 11.2769 53.466 13.5703C54.4584 14.7351 55.2985 16.0215 55.966 17.3984C57.9546 21.5433 58.2636 26.2966 56.8285 30.6641C56.3957 31.9781 55.241 34.3266 54.6582 35.0735L54.3457 35.475L52.8129 37.3078Z" fill="black"/>
<path d="M55.0273 37.0468C53.2758 34.2093 50.3914 32.1172 48.318 30.8781L48.0164 30.7C47.1023 30.1687 46.3789 29.8187 46.0367 29.6609L45.8023 29.5406L46.6664 28.5093C47.423 27.5464 47.9869 26.4466 48.3273 25.2703C48.8242 23.5937 48.5742 20.7906 47.8164 19.5015L47.7992 19.4672C47.003 17.7296 45.6535 16.3049 43.9617 15.4156L43.9102 15.3828C43.5711 15.1281 42.9852 14.9015 42.2602 14.7453H42.2398C40.7318 14.3373 39.1412 14.347 37.6383 14.7734C37.5445 14.7968 37.4602 14.8218 37.3789 14.8468C36.6109 15.0898 35.882 15.4424 35.2148 15.8937L35.1367 15.9484L35.1023 15.9734C35.0445 16.014 34.9867 16.0531 34.9305 16.0953C34.8742 16.1375 34.8008 16.1922 34.7367 16.2422L34.6773 16.2875C33.0267 17.5868 31.9112 19.4475 31.543 21.5156L31.5336 21.5656L31.5195 21.6437C31.5102 21.6953 31.5039 21.7468 31.4961 21.8V21.8312C31.4852 21.9093 31.4758 21.9875 31.4664 22.0703L31.4523 22.2015C31.4414 22.3172 31.432 22.4328 31.4258 22.55V22.5953C31.4258 22.7218 31.4148 22.8484 31.4148 22.9765V23.075C31.4148 25.1359 32.0477 26.939 33.2805 28.4406L34.2039 29.5703C34.2039 29.5703 33.5508 29.8484 32.568 30.389C31.8885 30.7496 31.2301 31.1487 30.5961 31.5843C28.6914 32.8515 26.4523 34.6937 24.9961 37.0531L27.0555 37.1531C27.344 36.7025 27.6707 36.2775 28.032 35.8828C28.7316 35.115 29.4891 34.402 30.2977 33.75L30.3445 33.714C31.4731 32.8427 32.6889 32.0907 33.9727 31.4703C34.5108 31.217 35.0326 30.9305 35.5352 30.6125C35.7228 30.493 35.8728 30.3229 35.968 30.1218C36.2383 29.5609 36.2367 29.2828 35.1867 28.1437L35.0961 28.0453C33.8867 26.7547 33.3398 25.6718 33.0773 24.0515C32.4992 20.5125 34.8805 17.0656 38.5023 16.2062C39.6133 15.9484 41.332 16.0609 42.3352 16.4562C42.5633 16.5422 42.7695 16.6125 42.9602 16.664L43.0211 16.6875C44.5728 17.4276 45.7996 18.7105 46.4695 20.2937V20.3078C46.5909 20.5991 46.6927 20.8982 46.7742 21.2031C46.7945 21.275 46.8102 21.3468 46.8258 21.4172L46.8383 21.4765C46.9753 22.1344 47.0278 22.807 46.9945 23.4781C46.9755 23.7691 46.939 24.0587 46.8852 24.3453C46.8297 24.6266 46.7588 24.9046 46.6727 25.1781C46.6508 25.2484 46.6273 25.3172 46.6039 25.3859L46.582 25.4453C46.5445 25.5484 46.5055 25.6468 46.4648 25.7437L46.4367 25.8093C46.4086 25.8765 46.3773 25.9437 46.3461 26.0109L46.2758 26.1547L46.2461 26.2125C46.1992 26.3062 46.1477 26.3953 46.0898 26.4859L46.0695 26.5218C45.7799 27.007 45.4417 27.4614 45.0602 27.8781L45.0414 27.8984L44.907 28.0453C43.7289 29.3031 43.7633 29.5625 44.0336 30.1265C44.127 30.3225 44.2737 30.4883 44.457 30.6047C44.9583 30.9271 45.4803 31.2163 46.0195 31.4703C48.6102 32.7734 50.1883 33.9515 52.0492 35.9718L52.1836 36.1187C52.4695 36.4441 52.7306 36.7903 52.9648 37.1547L55.0273 37.0468Z" fill="black"/>
</svg>
