<svg width="80" height="80" viewBox="0 0 80 80" fill="none" xmlns="http://www.w3.org/2000/svg">
<path d="M37.2129 32.9779C27.8691 34.306 20.666 41.056 18.6816 50.3685C18.2129 52.6342 18.2129 56.4467 18.6816 58.7123C20.5723 67.556 27.0098 73.9623 35.9004 75.8842C37.7285 76.2748 42.1348 76.2904 44.0254 75.8998C48.1256 75.1017 51.9107 73.144 54.9316 70.2592C56.7962 68.5218 58.3174 66.4493 59.416 64.1498C61.166 60.6029 61.7598 57.8529 61.6348 53.7592C61.541 51.0248 61.2129 49.2279 60.3691 46.9935C59.0638 43.557 56.9209 40.5009 54.135 38.1024C51.3491 35.704 48.0084 34.0392 44.416 33.2592C42.8223 32.9154 38.7598 32.7592 37.2129 32.9779ZM43.8066 34.7748C47.3935 35.4553 50.7269 37.101 53.4481 39.5347C56.1694 41.9685 58.1755 45.0982 59.2507 48.5872C60.3258 52.0761 60.4292 55.7922 59.5498 59.3355C58.6704 62.8788 56.8415 66.1153 54.2598 68.6967C51.3379 71.6342 47.9629 73.431 43.6973 74.3217C41.916 74.6967 38.1973 74.7123 36.3379 74.3373C32.0879 73.4935 28.4941 71.5404 25.541 68.4467C21.791 64.556 19.9473 59.9467 19.9473 54.5404C19.9473 49.1967 21.7702 44.5977 25.416 40.7435C28.7129 37.2748 32.7441 35.2123 37.541 34.556C38.9941 34.3529 42.2754 34.4623 43.8066 34.7748Z" fill="black"/>
<path d="M44.1511 40.3846C42.7448 40.9002 41.9792 41.8534 41.8698 43.2127C41.7917 44.2596 41.8698 44.6346 42.3855 45.3846C42.6042 45.7127 42.7761 45.994 42.7448 46.0252C42.7136 46.0565 41.6823 45.5096 40.4323 44.8377C37.948 43.494 37.4011 43.3221 36.5573 43.5877C35.9167 43.7752 30.9011 47.9627 30.323 48.7752C29.8386 49.4471 29.823 50.7752 30.2761 51.5096C30.6511 52.1034 31.7136 52.6659 32.448 52.6659C33.1823 52.6659 33.7605 52.3221 35.5105 50.8221C36.3698 50.0877 37.198 49.3846 37.3386 49.2596C37.5417 49.1034 37.6667 49.0877 37.9167 49.2284C38.2136 49.3846 38.2292 49.4315 38.0417 49.6971C37.6511 50.2752 34.8855 53.0409 30.8855 56.8846C28.698 58.994 26.8073 60.8846 26.6511 61.0877C25.823 62.2752 26.3386 63.9628 27.7448 64.6971C28.2292 64.9471 29.3698 64.9315 29.8542 64.6659C30.073 64.5565 31.8542 62.9471 33.7917 61.1034C35.7292 59.2596 37.3855 57.7127 37.4792 57.6971C37.573 57.6815 37.823 57.7752 38.0886 57.9315L38.5417 58.2127L37.2136 59.6659C36.4792 60.4784 35.823 61.3065 35.7292 61.5096C35.3386 62.5565 35.823 63.9628 36.7761 64.5565C37.3542 64.9159 38.4948 64.9784 39.1511 64.7128C39.6355 64.5096 44.198 59.6815 44.7605 58.7752C45.2136 58.0409 45.2136 57.1502 44.7605 56.3377C44.4792 55.8377 44.0886 55.5252 42.8542 54.8221C41.9948 54.3377 41.2761 53.869 41.2605 53.8065C41.2448 53.744 41.6198 53.2752 42.1198 52.7752L43.0417 51.869L45.3073 52.994C48.3073 54.4627 48.1198 54.494 51.6042 52.0721C53.0417 51.0721 54.3855 50.0409 54.5573 49.8065C55.0105 49.1815 55.0105 47.7127 54.5573 47.0877C53.9323 46.244 53.2605 45.9159 52.3073 45.9784C51.5261 46.0409 51.2605 46.1659 49.5886 47.3221L47.7448 48.5877L46.1511 47.7909C44.448 46.9471 44.198 46.7909 44.7917 46.9315C45.4792 47.1034 46.6042 46.744 47.3073 46.1346C48.7136 44.9471 48.948 43.0565 47.9011 41.5409C47.1886 40.5096 45.3386 39.9315 44.1511 40.3846Z" fill="black"/>
<path d="M45.697 41.8999C46.7283 42.2905 47.2283 43.3062 46.8377 44.2437C46.7102 44.5748 46.4814 44.8573 46.1841 45.0508C45.8867 45.2444 45.5358 45.3392 45.1814 45.3218C44.2127 45.3218 43.5564 44.7124 43.447 43.7436C43.3689 43.103 43.4158 42.9624 43.8533 42.4624C44.1345 42.1499 44.5095 41.8687 44.697 41.8374C44.8845 41.8062 45.0876 41.7593 45.1501 41.7437C45.3376 41.7755 45.521 41.8279 45.697 41.8999Z" fill="#FDB913"/>
<path d="M40.2441 46.5249C43.1504 48.0718 43.5254 48.3843 43.291 49.0249C43.2285 49.1812 42.2598 50.3062 41.1035 51.5249C39.9473 52.7437 39.0254 53.8843 39.0254 54.0405C39.0254 54.4468 39.3223 54.6655 41.3066 55.7749C43.291 56.8843 43.6348 57.1812 43.4941 57.7124C43.4473 57.9155 42.3066 59.2593 40.9785 60.6968C38.916 62.8999 38.4785 63.2905 38.0879 63.2905C37.8424 63.273 37.6117 63.1665 37.4391 62.9911C37.2665 62.8156 37.1638 62.5832 37.1504 62.3374C37.1504 62.1812 37.916 61.228 38.8691 60.2124C40.5723 58.3843 40.8379 57.9155 40.4004 57.4937C40.291 57.3999 39.3223 56.8062 38.2441 56.1968C36.3691 55.1343 36.291 55.0718 36.2441 54.5405C36.2129 54.0405 36.3691 53.8374 38.3223 51.7593C39.4785 50.5249 40.4316 49.3999 40.4316 49.2437C40.408 49.0454 40.3137 48.8623 40.166 48.728C39.6504 48.2749 37.8379 47.353 37.4473 47.353C37.1973 47.353 36.3535 47.978 34.9004 49.228C33.6973 50.2593 32.6035 51.103 32.4629 51.103C32.2197 51.0866 31.9907 50.9825 31.8183 50.8101C31.6459 50.6378 31.5418 50.4088 31.5254 50.1655C31.5254 49.7749 31.7754 49.478 33.1348 48.3062C35.7754 45.9937 36.9941 45.0093 37.1816 45.0093C37.291 45.0093 38.666 45.6968 40.2441 46.5249Z" fill="#FDB913"/>
<path d="M53.1819 47.9C53.6506 48.6032 53.4006 48.9 50.8694 50.65C49.5569 51.5563 48.3381 52.3532 48.1506 52.4157C47.9319 52.4782 47.2756 52.2438 46.0413 51.6344C45.0569 51.15 44.2444 50.7438 44.2288 50.7282C44.2131 50.7125 44.9163 49.2125 45.0256 49.1188C45.0569 49.0875 45.6506 49.3375 46.3538 49.6813C47.0569 50.025 47.7131 50.3219 47.8225 50.3219C47.9319 50.3219 48.9319 49.6969 50.0569 48.9157C52.26 47.4001 52.7444 47.2438 53.1819 47.9Z" fill="#FDB913"/>
<path d="M35.4773 57.2436C35.2429 57.4936 33.7273 58.9624 32.1179 60.5093C29.4148 63.0874 29.1335 63.3061 28.6804 63.2593C28.5541 63.252 28.431 63.2173 28.3195 63.1576C28.208 63.0978 28.111 63.0144 28.0351 62.9132C27.9592 62.812 27.9063 62.6955 27.8801 62.5717C27.854 62.448 27.8551 62.32 27.8835 62.1968C27.9304 62.0249 29.4617 60.4624 31.2898 58.6968L34.6335 55.4937L35.2742 56.1343L35.9148 56.7749L35.4773 57.2436Z" fill="#FDB913"/>
<path d="M39.4473 67.4781C39.2285 67.7125 39.1816 68.1188 39.1816 69.5719C39.1816 71.1188 39.2285 71.4 39.4629 71.6188C39.8066 71.9313 40.291 71.9625 40.5566 71.6969C40.6816 71.5719 40.7441 70.8688 40.7441 69.5406C40.7441 68.2125 40.6816 67.5094 40.5566 67.3844C40.2754 67.1031 39.7285 67.15 39.4473 67.4781Z" fill="black"/>
<path d="M52.4082 32.5874L51.1754 31.8687V26.8843C51.1754 23.7593 51.1114 21.7437 51.002 21.4624C50.8343 21.0957 50.602 20.7623 50.316 20.478L49.7832 19.9312L53.9051 10.8374C56.1848 5.8374 58.0457 1.55615 58.0457 1.3374C58.0457 1.0874 57.8582 0.743652 57.591 0.462402L57.1379 0.00927734H49.8723C42.9192 0.00927734 42.6067 0.0249023 42.2332 0.321777C41.9988 0.493652 41.452 1.49365 40.8582 2.7749C40.3254 3.9624 39.8426 4.99365 39.7645 5.05615C39.6863 5.11865 39.1692 4.11865 38.5754 2.82178C37.7332 0.962402 37.4035 0.399902 37.077 0.228027C36.7504 0.0561524 35.3457 0.00927734 29.4707 0.00927734H22.2832L21.8926 0.353027C21.0488 1.10303 21.002 0.946777 25.4551 10.7124C29.066 18.6343 29.5488 19.7905 29.3301 19.9312C28.7051 20.3062 28.0645 21.0874 27.9082 21.6499C27.7988 22.0405 27.7379 24.0874 27.7379 27.1187V31.9624L26.5957 32.603C21.1754 35.728 16.8145 41.3374 15.0332 47.5093C13.7363 52.1071 13.7363 56.974 15.0332 61.5718C17.5176 70.1812 24.5957 77.0562 33.2207 79.2124C49.3301 83.2437 64.9254 71.1187 64.9254 54.5405C64.9295 50.1085 63.7769 45.7521 61.5816 41.902C59.3864 38.0518 56.2244 34.8412 52.4082 32.5874ZM33.566 22.853C33.6113 22.7124 35.6582 18.1499 38.1285 12.7437C40.5989 7.3374 42.752 2.60303 42.9082 2.22803L43.1895 1.57178H52.8457C54.9254 1.57178 56.3317 1.63428 56.3004 1.7124C56.2692 1.79053 54.0801 6.6499 51.4239 12.4937L46.5801 23.1343H42.7848C40.2676 23.1343 38.9879 23.0718 38.9879 22.978L37.052 23.0765C36.8176 23.1296 36.3426 23.1343 35.377 23.1343C33.6442 23.1343 33.4879 23.103 33.566 22.853ZM46.9567 24.6968V25.9468H31.9567V24.6968H46.9567ZM29.4707 22.0874C29.6738 21.4624 30.0957 21.2749 31.3785 21.2749L32.4254 21.2593L32.2051 21.7593C31.7223 22.8999 31.5801 23.1343 31.3145 23.2124C30.6582 23.4312 30.3942 24.0405 30.3942 25.353C30.3942 26.5249 30.4238 26.6187 30.8457 27.0562L31.3004 27.5093H47.752L48.1285 27.1187C48.4879 26.7749 48.5192 26.6187 48.5192 25.3999C48.5192 24.6499 48.4551 23.9155 48.3629 23.7593C48.2364 23.5405 48.3145 23.228 48.6114 22.5249C49.4567 20.603 49.6129 21.2749 49.6129 26.6499C49.6129 30.8687 49.5957 31.1343 49.3473 31.0249C45.8718 29.585 42.1203 28.934 38.3629 29.1187C35.3491 29.253 32.3799 29.8976 29.5817 31.0249C29.3145 31.1343 29.3004 30.8687 29.3004 26.853C29.3004 24.2437 29.3613 22.3687 29.4707 22.0874ZM58.9395 68.3999C57.7379 70.1187 55.0957 72.7593 53.4098 73.9624C48.7364 77.2749 42.7848 78.8687 37.2207 78.3062C31.2832 77.6968 26.3145 75.2437 22.1738 70.8999C16.0926 64.5405 14.0613 55.3999 16.8738 46.9468C19.3426 39.4937 25.716 33.4937 33.2629 31.478C36.7813 30.5664 40.4569 30.4384 44.0301 31.103C47.3974 31.7846 50.5885 33.1515 53.4051 35.1187C55.091 36.3218 57.7332 38.9624 58.9348 40.6812C60.8542 43.4289 62.2085 46.5306 62.9192 49.8062C63.202 51.103 63.2629 51.8218 63.2629 54.5405C63.2629 57.2593 63.202 57.978 62.9192 59.2749C62.2099 62.5501 60.8572 65.6518 58.9395 68.3999Z" fill="black"/>
<path d="M37.2711 22.8375C37.2711 22.4703 37.6898 21.6109 38.2086 20.7969C37.7299 21.506 37.341 22.2717 37.0508 23.0766C37.2398 23.0344 37.2711 22.9687 37.2711 22.8375Z" fill="black"/>
<path d="M49.3488 1.57178H46.9879L46.7066 1.99365C45.0832 4.4624 44.8176 6.94678 45.8332 10.1655C46.4894 12.2437 46.5191 12.4155 46.316 13.2124C46.0504 14.2749 45.191 15.1187 42.5519 16.9155C41.2379 17.7905 39.7707 18.9155 39.2848 19.3999C38.8814 19.8287 38.5218 20.2966 38.2113 20.7968C37.6895 21.6108 37.2738 22.4702 37.2738 22.8374C37.2738 22.9624 37.2426 23.0343 37.0566 23.0765L38.9926 22.978C38.9926 22.5562 39.8348 21.2124 40.5238 20.5249C40.9457 20.103 42.3519 19.0405 43.6316 18.1655C47.2426 15.7124 47.9769 14.7593 47.9769 12.5093C48.0056 11.6393 47.8562 10.7726 47.5379 9.9624C46.4144 6.7749 46.7566 4.3374 48.6316 2.3374L49.3488 1.57178Z" fill="#FDB913"/>
</svg>
