<svg width="80" height="80" viewBox="0 0 80 80" fill="none" xmlns="http://www.w3.org/2000/svg">
<path d="M45.5449 60.8577L45.5543 60.8452L45.5449 60.8562V60.8577Z" fill="black"/>
<path d="M76.7461 40.9735C76.1711 39.5829 75.7164 39.2798 75.4961 39.222C75.4352 39.2063 75.2477 39.1579 74.9242 39.4157C74.7102 39.572 74.6789 39.6001 74.5742 41.3938C74.2695 46.8407 71.9711 51.0704 67.743 53.9657L65.8883 55.2266L65.732 14.5657L60.5445 9.37508L55.3445 4.19851H24.3445L22.8117 2.83758C21.232 1.40633 21.093 1.56258 20.6992 1.95633L20.6883 1.96726C20.4992 2.14851 20.4352 2.20945 20.4352 2.90477V4.2032H17.2617C14.6977 4.2032 14.693 4.2032 14.4492 4.45789L14.4367 4.47039C14.2008 4.69695 14.182 4.7157 14.182 6.62195V8.98601L12.4633 9.82508C8.60703 11.6845 5.58828 14.6251 3.72578 18.3313C1.2164 23.3313 1.04765 28.7657 3.23828 34.0438C3.81328 35.4345 4.26796 35.7376 4.48828 35.7954C4.54921 35.811 4.73671 35.8595 5.06015 35.6016C5.27421 35.4454 5.30546 35.4173 5.41015 33.6235C5.6664 28.9954 7.31328 25.3563 10.443 22.497C11.1007 21.89 11.8055 21.3362 12.5508 20.8407L14.1789 19.8532V77.8126L14.4461 78.0704L14.6914 78.3266H65.293L65.5508 78.0579L65.807 77.8126V66.0485L67.8117 65.0532C71.6789 63.1251 74.4867 60.2938 76.4055 56.4063C78.7961 51.5376 78.9164 46.2001 76.7461 40.9735ZM55.8086 10.947C55.8086 10.1438 55.8086 9.45476 55.8195 8.9532C55.8195 8.69383 55.8289 8.48445 55.8352 8.33758C55.843 8.1282 55.8602 7.69539 56.2945 7.69539C56.4867 7.69539 56.4867 7.69539 57.4508 8.64695C57.9664 9.15789 58.6742 9.86101 59.4477 10.636L63.0102 14.1985H55.807L55.8086 10.947ZM15.8086 5.82039H20.4367V7.85164L18.5352 8.08601C17.668 8.18289 16.8648 8.30476 16.7133 8.34226C16.619 8.37144 16.5213 8.38774 16.4227 8.3907C16.2965 8.39326 16.1731 8.35306 16.0727 8.27664C15.8086 8.07351 15.8086 7.75945 15.8086 7.13601V5.82039ZM64.1852 55.7813L63.1086 56.111C62.5839 56.2535 62.0518 56.3678 61.5148 56.4532H61.4992C61.0711 56.5016 60.6086 56.5782 60.4617 56.6095H60.4305L59.557 56.7657V53.5251C59.557 50.961 59.557 50.9563 59.3008 50.7126C58.9758 50.3829 58.9508 50.3563 58.2805 50.7704C57.3352 51.3532 55.5945 52.7454 52.1289 55.5204C48.4977 58.4016 45.8195 60.586 45.5414 60.8595C45.4743 60.9979 45.4381 61.1493 45.4352 61.3032C45.4352 61.3532 45.4352 61.397 45.4352 61.436C45.4352 61.4438 45.4352 61.4516 45.4352 61.4579C45.5914 61.7626 47.118 63.1298 51.493 67.0563L52.6508 68.0954C55.8492 70.9688 57.4555 72.4126 58.3367 73.0157C58.9383 73.4266 58.9508 73.4141 59.2852 73.0735L59.3008 73.0579C59.5602 72.8079 59.5664 72.8032 59.5664 70.2704V67.1673L61.482 66.9329C62.3133 66.8376 63.118 66.7173 63.3055 66.6766L64.1945 66.4345V76.6985H15.807V19.2313L16.882 18.9016C17.4068 18.7591 17.9388 18.6449 18.4758 18.5595H18.4914C18.907 18.5126 19.3852 18.436 19.5523 18.4032H19.5727L20.4352 18.247V21.5079C20.4352 24.0704 20.4352 24.0751 20.6898 24.3204L20.7023 24.3329C21.0148 24.6454 21.0367 24.672 21.693 24.2688C22.6305 23.6954 24.3398 22.3251 27.7555 19.597L27.9398 19.4501C31.807 16.3688 34.1664 14.3782 34.5023 14.0001C34.5335 13.8671 34.543 13.7299 34.5305 13.5938C34.0758 13.0141 30.2805 9.4282 27.4758 7.03133L26.0695 5.83758L40.518 5.82195H54.193V15.3126L54.4602 15.5704L54.7055 15.8266H64.193L64.1852 55.7813Z" fill="black"/>
<path d="M4.78284 28.1123L3.74065 30.9373L3.42034 28.4279C3.05002 25.7717 3.61252 22.4514 4.92346 19.5514C6.37659 16.3248 9.42346 13.1686 12.6875 11.5123C15.0219 10.3139 17.1328 9.76543 19.9735 9.62168C20.9469 9.57324 21.65 9.5373 21.8485 9.30918C22.0469 9.08105 22.0563 8.35449 22.0563 7.26074V4.27637L23.5406 5.6373C23.9235 6.00449 25.9469 7.84668 28.1453 9.80605C31.9844 13.2811 32.1953 13.4889 32.1375 13.7811C32.1297 13.9873 32.025 14.0764 30.6391 15.2139C29.7328 15.9576 28.5844 16.8779 27.4094 17.8061L22.1672 21.9889L22.0578 18.9936C21.9828 17.0654 21.9578 17.0467 21.7719 16.9014C21.6156 16.7764 21.0313 16.5373 18.7141 16.8654C15.589 17.2969 12.6407 18.572 10.1861 20.5536C7.73149 22.5353 5.86345 25.1485 4.78284 28.1123Z" fill="#FDB913"/>
<path d="M59.3557 65.4485C58.4463 65.4485 58.4057 65.4923 58.2041 65.7032L58.19 65.7157C57.9541 65.9423 57.9354 65.961 57.9354 67.747V70.7017L52.5916 65.8845C51.3229 64.7329 50.1666 63.6751 49.3354 62.9048C47.8947 61.5673 47.7854 61.4657 47.8557 61.2188C47.8697 61.0267 48.0119 60.9063 49.3525 59.8126C50.2603 59.0673 51.4072 58.147 52.5838 57.2189L57.8244 53.036L57.9338 56.0313C58.0104 57.9595 58.0338 57.9782 58.2197 58.1235C58.376 58.2485 58.9604 58.4876 61.2775 58.1595C67.0588 57.3532 72.1697 53.5985 74.5979 48.3626C74.8934 47.745 75.1512 47.1099 75.3697 46.461L76.1307 44.0142L76.5525 46.4251C76.6339 47.019 76.6725 47.6179 76.6682 48.2173C76.6598 51.569 75.679 54.8463 73.8447 57.6517C70.6463 62.4563 65.0947 65.4485 59.3557 65.4485Z" fill="#FDB913"/>
<path d="M45.8074 19.1982H34.1855V20.8201H45.8074V19.1982Z" fill="black"/>
<path d="M48.3074 24.1982H31.6855V25.8201H48.3074V24.1982Z" fill="black"/>
<path d="M58.3074 31.6982H21.6855V33.3201H58.3074V31.6982Z" fill="black"/>
<path d="M58.3074 36.6982H21.6855V38.3201H58.3074V36.6982Z" fill="black"/>
<path d="M58.3074 41.6982H21.6855V43.3201H58.3074V41.6982Z" fill="black"/>
<path d="M58.3074 46.6982H21.6855V48.3201H58.3074V46.6982Z" fill="black"/>
</svg>
