<svg width="35" height="33" viewBox="0 0 35 33" fill="none" xmlns="http://www.w3.org/2000/svg">
<path d="M22.3077 7.4202C20.6361 7.40859 18.9637 7.4202 17.2921 7.4202V7.4264C15.5398 7.4264 13.7868 7.39774 12.0354 7.43337C9.82624 7.47906 8.16672 8.94889 7.96683 11.0568C7.87012 12.0752 7.88059 13.1059 7.88624 14.1305C7.89671 16.6651 7.84835 19.2036 7.98053 21.7336C8.09095 23.8656 9.73919 25.3571 11.979 25.402C15.5028 25.4681 19.0271 25.4681 22.5519 25.402C24.94 25.3579 26.6882 23.641 26.7261 21.3441C26.7798 18.074 26.7798 14.8026 26.7261 11.53C26.685 9.06195 24.8804 7.43569 22.3077 7.4202ZM17.2115 22.0651C13.8876 22.0256 11.3084 19.4793 11.3592 16.2864C11.3705 15.5376 11.5354 14.7983 11.8444 14.1108C12.1535 13.4233 12.6005 12.8011 13.1601 12.2798C13.7197 11.7585 14.3808 11.3484 15.1055 11.0729C15.8302 10.7973 16.6044 10.6618 17.3837 10.6741C18.163 10.6863 18.9322 10.8462 19.6471 11.1444C20.3621 11.4426 21.0088 11.8733 21.5503 12.4119C22.0918 12.9505 22.5174 13.5865 22.8028 14.2833C23.0882 14.9802 23.2278 15.7243 23.2136 16.4731C23.1733 19.6001 20.4862 22.1038 17.2115 22.0651ZM23.4385 11.8049C22.6784 11.7941 22.1231 11.2326 22.1408 10.4931C22.1492 10.2424 22.2344 9.99968 22.386 9.79546C22.5375 9.59123 22.7484 9.43462 22.9924 9.34532C23.2363 9.25602 23.5022 9.23801 23.7568 9.29357C24.0113 9.34913 24.2431 9.47577 24.4229 9.65756C24.6027 9.83935 24.7226 10.0682 24.7674 10.3152C24.8122 10.5623 24.78 10.8166 24.6747 11.0461C24.5695 11.2756 24.396 11.4701 24.176 11.6052C23.9561 11.7402 23.6995 11.8097 23.4385 11.8049Z" fill="white"/>
<path d="M33.5279 0.340907L33.5045 0.328517C33.2059 0.105016 32.835 -0.0104004 32.4567 0.00248912C22.3395 0.00145657 12.2217 0.000940291 2.10339 0.000940291C1.72502 -0.0117291 1.35409 0.103965 1.05561 0.327742L1.03143 0.340133C0.452733 0.704881 0.210938 1.24 0.210938 1.88354C0.210938 4.61669 0.210938 7.34908 0.210938 10.0807C0.210938 17.0148 0.210938 23.9489 0.210938 30.8829C0.210938 31.5435 0.438225 32.091 1.03224 32.4643L1.05561 32.4775C1.38687 32.7299 1.77213 32.805 2.18399 32.805H32.4559C32.8343 32.8177 33.2052 32.702 33.5037 32.4782L33.5279 32.4666C34.105 32.1011 34.3476 31.5706 34.3484 30.9232C34.3484 28.6805 34.3484 26.4381 34.3484 24.1959C34.3484 16.7713 34.3484 9.34732 34.3484 1.92381C34.35 1.26091 34.1195 0.715723 33.5279 0.340907ZM28.7903 21.0766C28.7903 24.7357 26.3135 27.2757 22.5037 27.4267C20.7547 27.4972 19.0008 27.4391 17.2494 27.4391V27.4616C15.6987 27.4616 14.1488 27.4655 12.5981 27.4616C9.46122 27.4515 7.15771 26.0328 6.20585 23.4277C5.94195 22.679 5.80348 21.8948 5.7956 21.1044C5.74885 18.0269 5.77223 14.9471 5.77223 11.8719C5.77223 7.96345 8.41747 5.37846 12.4812 5.35368C15.6826 5.33354 18.8848 5.34051 22.087 5.35368C25.2891 5.36684 27.7143 7.06358 28.5276 9.89715C28.6975 10.5328 28.7815 11.1869 28.7774 11.8433C28.8048 14.9215 28.7879 17.9991 28.7903 21.0766Z" fill="white"/>
<path d="M17.263 12.7139C15.1916 12.7139 13.4498 14.3889 13.4571 16.3776C13.4643 18.3663 15.2028 20.0351 17.271 20.0429C19.3787 20.0514 21.0931 18.3911 21.0931 16.3404C21.0931 14.3455 19.3707 12.7146 17.263 12.7139Z" fill="white"/>
</svg>
