<svg width="32" height="32" viewBox="0 0 32 32" fill="none" xmlns="http://www.w3.org/2000/svg">
<mask id="mask0_263_1538" style="mask-type:alpha" maskUnits="userSpaceOnUse" x="3" y="3" width="26" height="26">
<path d="M10.692 3H21.308C23.983 3 24.953 3.278 25.931 3.801C26.908 4.324 27.676 5.091 28.199 6.069C28.722 7.047 29 8.017 29 10.692V21.308C29 23.983 28.722 24.953 28.199 25.931C27.676 26.908 26.909 27.676 25.931 28.199C24.953 28.722 23.983 29 21.308 29H10.692C8.017 29 7.047 28.722 6.069 28.199C5.092 27.676 4.324 26.909 3.801 25.931C3.278 24.953 3 23.983 3 21.308V10.692C3 8.017 3.278 7.047 3.801 6.069C4.324 5.092 5.091 4.324 6.069 3.801C7.047 3.278 8.017 3 10.692 3Z" fill="white"/>
</mask>
<g mask="url(#mask0_263_1538)">
<path d="M9.24215 3H24.7578C28.6675 3 30.0852 3.278 31.5145 3.801C32.9425 4.324 34.0649 5.091 34.8293 6.069C35.5937 7.047 36 8.017 36 10.692V21.308C36 23.983 35.5937 24.953 34.8293 25.931C34.0649 26.908 32.9439 27.676 31.5145 28.199C30.0852 28.722 28.6675 29 24.7578 29H9.24215C5.33254 29 3.91485 28.722 2.48546 28.199C1.05754 27.676 -0.0649229 26.909 -0.829308 25.931C-1.59369 24.953 -2 23.983 -2 21.308V10.692C-2 8.017 -1.59369 7.047 -0.829308 6.069C-0.0649229 5.092 1.05608 4.324 2.48546 3.801C3.91485 3.278 5.33254 3 9.24215 3Z" fill="#A50064"/>
<path d="M21.162 8C19.042 8 17.325 9.616 17.325 11.609C17.325 13.603 19.043 15.219 21.162 15.219C23.282 15.219 25 13.603 25 11.609C25 9.616 23.282 8 21.162 8ZM21.162 13.15C20.263 13.15 19.532 12.462 19.532 11.617C19.532 10.771 20.263 10.084 21.162 10.084C22.062 10.084 22.792 10.771 22.792 11.617C22.792 12.462 22.062 13.15 21.162 13.15ZM16.217 15.226H14.009V10.688C14.009 10.348 13.719 10.077 13.359 10.077C12.997 10.077 12.709 10.348 12.709 10.688V15.226H10.5V10.688C10.5 10.348 10.21 10.077 9.85 10.077C9.488 10.077 9.199 10.348 9.199 10.688V15.226H7V10.711C7 9.216 8.293 8 9.882 8C10.532 8 11.127 8.204 11.608 8.544C12.164 8.18 12.74 8 13.334 8C14.924 8 16.217 9.216 16.217 10.71V15.226ZM21.162 16.782C19.042 16.782 17.325 18.397 17.325 20.391C17.325 22.384 19.043 24 21.162 24C23.282 24 25 22.384 25 20.39C25 18.397 23.282 16.781 21.162 16.781V16.782ZM13.335 16.773C14.925 16.773 16.217 17.989 16.217 19.483V24H14.009V19.462C14.009 19.122 13.719 18.851 13.359 18.851C12.997 18.851 12.709 19.123 12.709 19.462V24H10.5V19.462C10.5 19.122 10.21 18.851 9.85 18.851C9.488 18.851 9.199 19.123 9.199 19.462V24H7V19.485C7 17.99 8.293 16.775 9.882 16.775C10.532 16.775 11.127 16.978 11.608 17.318C12.164 16.955 12.74 16.774 13.334 16.774L13.335 16.773ZM21.162 18.866C22.062 18.866 22.792 19.553 22.792 20.398C22.792 21.244 22.062 21.931 21.162 21.931C20.263 21.931 19.532 21.244 19.532 20.398C19.532 19.553 20.263 18.866 21.162 18.866Z" fill="white"/>
</g>
</svg>
