<svg width="20" height="20" viewBox="0 0 20 20" fill="none" xmlns="http://www.w3.org/2000/svg">
<path d="M19.0196 0.339391C18.879 0.405797 18.6993 0.554235 18.4844 0.776891C18.3087 0.960485 16.2696 3.39798 13.961 6.19095C11.6485 8.98392 9.73444 11.273 9.711 11.2769C9.68756 11.2808 9.10553 10.6245 8.41803 9.81595C7.07038 8.23392 6.91413 8.06205 6.66803 7.89798C5.90241 7.38236 4.82428 7.63236 4.32428 8.44486C4.01178 8.95658 4.03522 9.7183 4.38678 10.23C4.45319 10.3277 5.45319 11.5113 6.61335 12.8589C8.3985 14.941 8.75006 15.3277 8.93756 15.441C9.28913 15.6519 9.5235 15.7144 9.91803 15.6949C10.3204 15.6753 10.668 15.5347 10.9532 15.2691C11.086 15.1519 12.2891 13.3081 15.4063 8.46048C17.754 4.80423 19.7071 1.75736 19.7462 1.68314C19.9532 1.27298 20.0274 0.745641 19.9024 0.50736C19.7501 0.214391 19.4102 0.147985 19.0196 0.339391Z" fill="#FDB913"/>
</svg>
