<svg width="35" height="33" viewBox="0 0 35 33" fill="none" xmlns="http://www.w3.org/2000/svg">
<path d="M34.1596 0.342964L34.1356 0.329721C33.8291 0.105766 33.449 -0.00998537 33.0614 0.00253752C22.688 0.00149884 12.3142 0.000979503 1.94027 0.000979503C1.55244 -0.0119865 1.17215 0.104115 0.866013 0.328942L0.842049 0.342185C0.247905 0.70832 0 1.24739 0 1.89475C0 4.64309 0 7.39196 0 10.1413C0 17.1166 0 24.0916 0 31.0663C0 31.73 0.23303 32.2816 0.842049 32.657L0.86684 32.6695C1.20564 32.925 1.60146 32.999 2.02373 32.999H33.0606C33.4484 33.012 33.8287 32.8959 34.1348 32.6711L34.1588 32.6594C34.7504 32.2917 34.9992 31.7581 35 31.1068C35 28.8508 35 26.595 35 24.3396C35 16.8704 35 9.40206 35 1.93448C35.0016 1.26843 34.7653 0.719226 34.1596 0.342964ZM11.4152 22.748V10.2512L27.0133 16.4996L11.4152 22.748Z" fill="white"/>
</svg>
